<svg xmlns="http://www.w3.org/2000/svg" xmlns:xlink="http://www.w3.org/1999/xlink" width="600" zoomAndPan="magnify" viewBox="0 0 450 149.999998" height="200" preserveAspectRatio="xMidYMid meet" version="1.2"><defs><clipPath id="1a9d03701b"><path d="M 0 71 L 449.855469 71 L 449.855469 150 L 0 150 Z M 0 71 "/></clipPath><clipPath id="58da7fa2e2"><path d="M 0 69 L 449.855469 69 L 449.855469 149 L 0 149 Z M 0 69 "/></clipPath><clipPath id="79455c6540"><path d="M 136 60 L 449.855469 60 L 449.855469 122 L 136 122 Z M 136 60 "/></clipPath></defs><g id="3fedf7bdec"><rect x="0" width="450" y="0" height="149.999998" style="fill:#ffffff;fill-opacity:1;stroke:none;"/><rect x="0" width="450" y="0" height="149.999998" style="fill:#ffffff;fill-opacity:1;stroke:none;"/><g clip-rule="nonzero" clip-path="url(#1a9d03701b)"><path style=" stroke:none;fill-rule:nonzero;fill:#0a3d62;fill-opacity:1;" d="M 449.996094 98.835938 L 449.996094 201.359375 L -11.394531 201.359375 L -11.394531 71.863281 C 4.269531 72.101562 46.859375 69.4375 99.96875 83.582031 C 111.773438 86.722656 123.367188 90.503906 134.753906 94.929688 C 135.261719 95.128906 135.765625 95.324219 136.273438 95.519531 C 376.996094 188.617188 447.796875 97.210938 449.945312 98.699219 C 449.984375 98.734375 450.003906 98.78125 449.996094 98.835938 Z M 449.996094 98.835938 "/></g><g clip-rule="nonzero" clip-path="url(#58da7fa2e2)"><path style=" stroke:none;fill-rule:nonzero;fill:#58c9c4;fill-opacity:1;" d="M 449.996094 96.683594 L 449.996094 110.128906 C 450.003906 110.074219 449.988281 110.027344 449.945312 109.988281 C 447.792969 108.496094 376.996094 199.90625 136.273438 106.808594 C 135.765625 106.617188 135.261719 106.417969 134.753906 106.222656 C 123.367188 101.796875 111.773438 98.015625 99.96875 94.875 C 46.859375 80.726562 4.269531 83.394531 -11.394531 83.15625 L -11.394531 69.707031 C 4.269531 69.945312 46.859375 67.285156 99.96875 81.425781 C 111.773438 84.570312 123.367188 88.351562 134.753906 92.777344 C 135.261719 92.976562 135.765625 93.171875 136.273438 93.367188 C 376.996094 186.464844 447.796875 95.058594 449.945312 96.542969 C 449.984375 96.582031 450.003906 96.628906 449.996094 96.683594 Z M 449.996094 96.683594 "/></g><g clip-rule="nonzero" clip-path="url(#79455c6540)"><path style=" stroke:none;fill-rule:nonzero;fill:#259f9c;fill-opacity:1;" d="M 136.324219 79.523438 C 377.046875 172.617188 447.847656 81.214844 449.996094 82.699219 L 449.996094 60.589844 C 449.996094 55.488281 378.917969 153.527344 136.324219 79.523438 Z M 136.324219 79.523438 "/></g></g></svg>